<?xml version="1.0" encoding="UTF-8" ?>
<!DOCTYPE svg PUBLIC "-//W3C//DTD SVG 1.1//EN" "http://www.w3.org/Graphics/SVG/1.1/DTD/svg11.dtd">
<svg width="1024pt" height="1024pt" viewBox="0 0 1024 1024" version="1.1" xmlns="http://www.w3.org/2000/svg">
<g id="#0b3038ff">
</g>
<g id="#ffffffff">
<path fill="#ffffff" opacity="1.00" d=" M 530.57 347.12 C 531.51 340.04 537.60 333.75 544.89 333.45 C 552.63 333.12 560.39 333.29 568.15 333.23 C 567.19 345.90 565.49 358.51 564.47 371.18 C 587.26 375.20 608.55 386.19 625.40 402.00 C 620.66 409.06 615.76 416.01 610.99 423.06 C 608.58 426.61 605.63 430.13 601.49 431.69 C 596.67 433.27 591.44 432.19 586.85 430.36 C 577.84 426.93 569.30 422.24 559.96 419.71 C 557.35 442.29 555.49 464.96 553.05 487.57 C 571.98 493.27 591.32 499.53 607.15 511.80 C 619.30 521.23 627.30 535.66 628.97 550.94 C 630.99 569.40 627.81 588.57 619.14 605.07 C 610.38 621.71 595.67 634.83 578.74 642.80 C 565.68 649.24 551.21 652.06 536.84 653.66 C 535.82 661.59 535.30 669.58 534.38 677.52 C 533.52 684.66 527.48 691.27 520.05 691.46 C 512.27 691.86 504.46 691.65 496.66 691.70 C 497.59 678.48 499.37 665.33 500.32 652.11 C 472.73 646.98 445.49 636.22 424.42 617.28 C 430.28 608.59 436.35 600.03 442.29 591.40 C 445.71 586.25 451.66 582.55 457.97 582.87 C 463.15 582.73 467.64 585.56 472.03 587.91 C 482.62 593.91 492.94 600.93 504.95 603.78 C 507.61 579.67 509.74 555.50 512.17 531.36 C 494.78 526.03 476.58 521.12 462.02 509.68 C 448.63 499.38 439.02 483.91 436.89 467.04 C 434.37 451.18 435.67 434.44 442.66 419.83 C 452.17 398.94 471.01 383.19 492.39 375.42 C 503.76 370.92 516.06 369.70 528.18 369.16 C 529.23 361.85 529.70 354.46 530.57 347.12 M 498.66 428.62 C 490.18 437.08 489.65 451.79 496.58 461.34 C 502.00 468.22 509.90 472.77 518.00 475.81 C 519.17 456.56 521.85 437.40 523.31 418.15 C 514.48 419.67 505.26 422.20 498.66 428.62 M 547.79 541.99 C 545.63 562.99 543.50 584.01 541.77 605.05 C 552.22 603.06 563.28 598.44 568.69 588.70 C 573.31 580.03 574.67 569.15 571.07 559.88 C 566.65 550.64 556.89 545.60 547.79 541.99 Z" />
<path fill="#ffffff" opacity="1.00" d=" M 234.13 384.93 C 261.44 371.29 292.87 366.96 323.06 370.16 C 348.66 373.07 374.00 382.48 393.72 399.33 C 396.23 401.70 399.43 403.71 401.13 406.71 C 394.73 415.43 388.14 424.01 381.73 432.72 C 379.51 435.76 377.07 438.71 374.03 440.97 C 369.73 443.70 363.96 443.52 359.49 441.27 C 351.90 437.50 345.34 431.86 337.40 428.76 C 322.12 422.50 305.04 421.47 288.87 424.23 C 272.34 427.27 256.56 435.79 245.91 448.94 C 232.13 465.30 226.06 486.98 225.51 508.09 C 225.00 525.71 227.60 543.73 235.26 559.75 C 242.67 575.97 255.89 589.89 272.64 596.46 C 284.98 601.73 298.71 602.27 311.91 601.13 C 324.84 600.30 337.49 595.66 347.76 587.74 C 352.49 584.02 357.40 579.05 363.95 579.66 C 369.86 579.76 373.47 584.98 377.19 588.80 C 384.24 595.93 390.97 603.37 398.00 610.51 C 388.07 622.87 376.02 633.74 361.74 640.83 C 342.48 650.84 320.60 654.76 299.05 655.01 C 276.95 655.55 254.44 652.09 234.35 642.55 C 217.78 635.01 202.90 623.75 191.24 609.76 C 169.22 583.15 158.98 548.17 158.95 513.95 C 158.36 485.10 165.74 455.81 181.62 431.56 C 194.34 411.53 212.85 395.34 234.13 384.93 Z" />
</g>
<g id="#3cb24aff">
<path fill="#3cb24a" opacity="1.00" d=" M 663.18 624.30 C 729.78 624.24 796.39 624.32 863.00 624.26 C 864.32 624.18 865.63 624.55 866.88 625.03 C 866.70 637.32 866.79 649.62 866.82 661.92 C 798.93 662.20 731.03 662.00 663.14 662.02 C 663.14 649.44 663.08 636.87 663.18 624.30 Z" />
</g>
</svg>
