<?xml version="1.0" encoding="UTF-8" standalone="no"?>
<!-- Created with Inkscape (http://www.inkscape.org/) -->

<svg
   xmlns:dc="http://purl.org/dc/elements/1.1/"
   xmlns:cc="http://creativecommons.org/ns#"
   xmlns:rdf="http://www.w3.org/1999/02/22-rdf-syntax-ns#"
   xmlns:svg="http://www.w3.org/2000/svg"
   xmlns="http://www.w3.org/2000/svg"
   xmlns:sodipodi="http://sodipodi.sourceforge.net/DTD/sodipodi-0.dtd"
   xmlns:inkscape="http://www.inkscape.org/namespaces/inkscape"
   width="249.75352mm"
   height="126.46431mm"
   viewBox="0 0 249.75352 126.46431"
   version="1.1"
   id="svg8"
   inkscape:version="0.92.0 r15299"
   sodipodi:docname="cslogomaroon.svg">
  <defs
     id="defs2" />
  <sodipodi:namedview
     id="base"
     pagecolor="#ffffff"
     bordercolor="#666666"
     borderopacity="1.0"
     inkscape:pageopacity="0.0"
     inkscape:pageshadow="2"
     inkscape:zoom="0.98994949"
     inkscape:cx="381.14582"
     inkscape:cy="299.53258"
     inkscape:document-units="mm"
     inkscape:current-layer="g33"
     showgrid="true"
     inkscape:window-width="1920"
     inkscape:window-height="1017"
     inkscape:window-x="1912"
     inkscape:window-y="712"
     inkscape:window-maximized="1">
    <inkscape:grid
       type="xygrid"
       id="grid35" />
  </sodipodi:namedview>
  <metadata
     id="metadata5">
    <rdf:RDF>
      <cc:Work
         rdf:about="">
        <dc:format>image/svg+xml</dc:format>
        <dc:type
           rdf:resource="http://purl.org/dc/dcmitype/StillImage" />
        <dc:title></dc:title>
      </cc:Work>
    </rdf:RDF>
  </metadata>
  <g
     inkscape:label="Layer 1"
     inkscape:groupmode="layer"
     id="layer1"
     transform="translate(25.09105,-94.672606)">
    <g
       id="g33"
       transform="matrix(0.35277779,0,0,0.35277779,-81.153533,-22.883539)"
       style="fill:#760019;fill-opacity:1">
      <g
         id="#0b3038ff"
         style="fill:#760019;fill-opacity:1" />
      <g
         id="#ffffffff"
         style="fill:#a41e35;fill-opacity:1">
        <path
           id="path11"
           d="m 530.57,347.12 c 0.94,-7.08 7.03,-13.37 14.32,-13.67 7.74,-0.33 15.5,-0.16 23.26,-0.22 -0.96,12.67 -2.66,25.28 -3.68,37.95 22.79,4.02 44.08,15.01 60.93,30.82 -4.74,7.06 -9.64,14.01 -14.41,21.06 -2.41,3.55 -5.36,7.07 -9.5,8.63 -4.82,1.58 -10.05,0.5 -14.64,-1.33 -9.01,-3.43 -17.55,-8.12 -26.89,-10.65 -2.61,22.58 -4.47,45.25 -6.91,67.86 18.93,5.7 38.27,11.96 54.1,24.23 12.15,9.43 20.15,23.86 21.82,39.14 2.02,18.46 -1.16,37.63 -9.83,54.13 -8.76,16.64 -23.47,29.76 -40.4,37.73 -13.06,6.44 -27.53,9.26 -41.9,10.86 -1.02,7.93 -1.54,15.92 -2.46,23.86 -0.86,7.14 -6.9,13.75 -14.33,13.94 -7.78,0.4 -15.59,0.19 -23.39,0.24 0.93,-13.22 2.71,-26.37 3.66,-39.59 -27.59,-5.13 -54.83,-15.89 -75.9,-34.83 5.86,-8.69 11.93,-17.25 17.87,-25.88 3.42,-5.15 9.37,-8.85 15.68,-8.53 5.18,-0.14 9.67,2.69 14.06,5.04 10.59,6 20.91,13.02 32.92,15.87 2.66,-24.11 4.79,-48.28 7.22,-72.42 -17.39,-5.33 -35.59,-10.24 -50.15,-21.68 -13.39,-10.3 -23,-25.77 -25.13,-42.64 -2.52,-15.86 -1.22,-32.6 5.77,-47.21 9.51,-20.89 28.35,-36.64 49.73,-44.41 11.37,-4.5 23.67,-5.72 35.79,-6.26 1.05,-7.31 1.52,-14.7 2.39,-22.04 m -31.91,81.5 c -8.48,8.46 -9.01,23.17 -2.08,32.72 5.42,6.88 13.32,11.43 21.42,14.47 1.17,-19.25 3.85,-38.41 5.31,-57.66 -8.83,1.52 -18.05,4.05 -24.65,10.47 m 49.13,113.37 c -2.16,21 -4.29,42.02 -6.02,63.06 10.45,-1.99 21.51,-6.61 26.92,-16.35 4.62,-8.67 5.98,-19.55 2.38,-28.82 -4.42,-9.24 -14.18,-14.28 -23.28,-17.89 z"
           inkscape:connector-curvature="0"
           style="opacity:1;fill:#bf233e;fill-opacity:1" />
        <path
           id="path13"
           d="m 234.13,384.93 c 27.31,-13.64 58.74,-17.97 88.93,-14.77 25.6,2.91 50.94,12.32 70.66,29.17 2.51,2.37 5.71,4.38 7.41,7.38 -6.4,8.72 -12.99,17.3 -19.4,26.01 -2.22,3.04 -4.66,5.99 -7.7,8.25 -4.3,2.73 -10.07,2.55 -14.54,0.3 -7.59,-3.77 -14.15,-9.41 -22.09,-12.51 -15.28,-6.26 -32.36,-7.29 -48.53,-4.53 -16.53,3.04 -32.31,11.56 -42.96,24.71 -13.78,16.36 -19.85,38.04 -20.4,59.15 -0.51,17.62 2.09,35.64 9.75,51.66 7.41,16.22 20.63,30.14 37.38,36.71 12.34,5.27 26.07,5.81 39.27,4.67 12.93,-0.83 25.58,-5.47 35.85,-13.39 4.73,-3.72 9.64,-8.69 16.19,-8.08 5.91,0.1 9.52,5.32 13.24,9.14 7.05,7.13 13.78,14.57 20.81,21.71 -9.93,12.36 -21.98,23.23 -36.26,30.32 -19.26,10.01 -41.14,13.93 -62.69,14.18 -22.1,0.54 -44.61,-2.92 -64.7,-12.46 -16.57,-7.54 -31.45,-18.8 -43.11,-32.79 -22.02,-26.61 -32.26,-61.59 -32.29,-95.81 -0.59,-28.85 6.79,-58.14 22.67,-82.39 12.72,-20.03 31.23,-36.22 52.51,-46.63 z"
           inkscape:connector-curvature="0"
           style="opacity:1;fill:#bf233e;fill-opacity:1" />
      </g>
      <g
         id="#3cb24aff"
         style="fill:#aaaaaa;fill-opacity:1">
        <path
           id="path16"
           d="m 663.18,624.3 c 66.6,-0.06 133.21,0.02 199.82,-0.04 1.32,-0.08 2.63,0.29 3.88,0.77 -0.18,12.29 -0.09,24.59 -0.06,36.89 -67.89,0.28 -135.79,0.08 -203.68,0.1 0,-12.58 -0.06,-25.15 0.04,-37.72 z"
           inkscape:connector-curvature="0"
           style="opacity:1;fill:#aaaaaa;fill-opacity:1" />
      </g>
    </g>
  </g>
</svg>
