<?xml version="1.0" encoding="UTF-8" ?>
<!DOCTYPE svg PUBLIC "-//W3C//DTD SVG 1.1//EN" "http://www.w3.org/Graphics/SVG/1.1/DTD/svg11.dtd">
<svg width="617pt" height="801pt" viewBox="0 0 617 801" version="1.1" xmlns="http://www.w3.org/2000/svg">
<g id="#ffffffff">
<path fill="#ffffff" opacity="1.00" d=" M 406.57 44.55 C 408.92 41.82 412.99 41.69 416.18 42.78 C 420.80 44.37 424.36 47.91 427.61 51.40 C 435.92 60.36 440.64 71.86 444.95 83.10 C 458.52 118.07 464.40 155.63 465.27 193.02 C 465.38 199.09 465.51 205.17 465.06 211.23 C 459.23 208.16 454.20 203.85 448.57 200.45 C 441.77 196.38 435.57 191.41 429.01 186.99 C 425.56 184.69 422.13 182.36 418.84 179.85 C 418.48 168.27 419.75 156.70 419.63 145.13 C 419.10 138.11 414.91 131.94 414.42 124.91 C 414.01 115.21 413.80 105.46 412.17 95.87 C 411.58 92.73 410.98 89.39 408.88 86.86 C 408.50 86.96 407.75 87.15 407.38 87.25 C 405.09 90.07 404.18 93.70 403.02 97.08 C 397.02 116.66 393.05 136.78 388.82 156.79 C 383.37 152.74 378.23 148.30 372.87 144.14 C 368.32 140.38 363.38 137.09 359.09 133.03 C 360.10 130.76 361.12 128.49 362.24 126.27 C 373.99 102.85 385.46 79.27 398.55 56.56 C 401.03 52.44 403.33 48.13 406.57 44.55 Z" />
<path fill="#ffffff" opacity="1.00" d=" M 158.36 57.32 C 161.44 55.94 165.35 55.71 168.21 57.74 C 170.84 59.86 172.53 62.87 174.34 65.67 C 182.59 79.06 189.69 93.10 196.93 107.05 C 201.36 116.03 206.10 124.86 210.21 134.00 C 206.16 138.68 201.33 142.58 196.90 146.88 C 192.70 150.62 188.99 154.92 184.33 158.11 C 179.71 141.66 177.12 124.72 172.87 108.18 C 170.82 100.56 169.33 92.50 164.72 85.91 C 161.60 87.70 161.23 91.50 160.64 94.69 C 159.20 104.41 159.06 114.26 158.79 124.06 C 158.66 130.45 154.46 135.65 152.39 141.46 C 151.16 144.46 151.57 147.76 151.70 150.91 C 152.32 161.28 152.54 171.67 153.18 182.04 C 153.21 184.26 153.52 186.57 152.87 188.73 C 152.02 190.20 150.80 191.41 149.63 192.63 C 143.60 198.61 137.78 204.79 131.94 210.96 C 130.48 212.50 128.83 213.85 127.14 215.13 C 125.85 208.19 125.31 201.14 124.64 194.12 C 122.51 169.21 122.64 143.92 127.25 119.28 C 130.62 101.92 136.80 85.04 145.81 69.81 C 148.83 64.68 152.78 59.75 158.36 57.32 Z" />
<path fill="#ffffff" opacity="1.00" d=" M 265.94 158.96 C 267.96 151.99 273.00 146.21 278.82 142.05 C 280.22 149.16 280.62 156.83 277.59 163.59 C 274.81 169.82 271.18 175.67 267.03 181.08 C 265.17 173.91 264.29 166.25 265.94 158.96 Z" />
<path fill="#ffffff" opacity="1.00" d=" M 299.08 196.14 C 300.27 195.22 301.56 194.23 303.12 194.10 C 309.75 193.55 316.17 196.60 320.85 201.15 C 325.82 205.97 329.94 211.68 332.93 217.93 C 330.85 222.27 328.58 226.53 326.88 231.05 C 331.84 229.99 336.66 227.21 341.86 228.17 C 351.25 229.78 360.06 233.84 368.00 239.02 C 374.50 243.33 380.67 248.37 385.26 254.74 C 386.83 256.98 388.56 259.27 389.20 261.98 C 388.74 264.00 387.77 265.85 386.93 267.72 C 382.75 264.78 378.00 262.70 372.92 261.97 C 375.34 264.23 378.26 265.99 380.36 268.59 C 384.02 276.95 382.49 286.24 382.07 295.04 C 381.84 297.43 381.92 300.23 379.90 301.92 C 373.23 308.25 366.30 314.32 359.64 320.67 C 357.74 322.44 355.92 324.33 353.74 325.75 C 352.05 325.55 350.55 324.68 349.07 323.92 C 343.37 320.81 337.88 317.27 331.85 314.82 C 337.89 321.56 344.63 327.69 350.03 334.99 C 354.19 340.55 358.30 346.58 359.43 353.58 C 360.09 359.42 359.19 365.33 357.97 371.04 C 350.90 370.52 343.93 369.09 336.85 368.78 C 341.24 373.21 346.22 377.40 348.70 383.30 C 351.71 390.42 351.69 398.34 351.66 405.94 C 351.53 409.08 351.69 412.39 350.39 415.33 C 348.09 418.08 344.99 419.98 342.27 422.28 C 331.60 430.95 320.80 439.46 310.19 448.21 C 308.61 449.43 306.96 450.81 304.89 451.01 C 300.26 451.61 295.60 451.83 290.95 452.14 C 288.30 452.35 285.68 451.72 283.24 450.74 C 268.11 444.73 252.83 439.11 237.66 433.21 C 237.39 431.25 236.90 429.27 237.11 427.28 C 237.71 425.64 239.05 424.43 240.18 423.16 C 245.30 417.89 250.45 412.50 254.16 406.10 C 257.99 399.55 261.15 392.58 263.42 385.34 C 263.87 383.68 264.46 382.00 264.33 380.27 C 263.25 377.95 261.54 376.01 260.08 373.94 C 258.07 371.33 256.28 368.34 253.28 366.76 C 250.46 365.17 247.49 363.89 244.63 362.39 C 241.31 360.70 237.91 358.75 234.07 358.83 C 228.36 358.77 222.65 358.78 216.94 358.82 C 214.72 358.80 212.48 359.32 210.69 360.68 C 202.47 366.42 195.66 374.12 190.86 382.92 C 189.22 385.83 188.53 389.33 189.43 392.60 C 191.06 399.03 195.30 404.45 200.11 408.87 C 205.68 413.96 211.28 419.03 217.04 423.91 C 218.24 425.08 219.90 426.25 219.72 428.15 C 219.65 430.15 220.09 432.82 218.18 434.13 C 211.76 438.70 204.27 441.61 198.06 446.52 C 210.28 451.12 222.54 455.58 234.69 460.35 C 236.82 461.10 239.10 462.10 241.39 461.42 C 248.31 459.55 255.00 456.92 261.85 454.82 C 267.19 452.96 272.39 456.36 277.05 458.59 C 268.34 461.14 259.52 463.29 250.81 465.84 C 248.52 466.47 246.24 467.25 243.86 467.47 C 241.79 467.53 239.83 466.73 237.88 466.14 C 228.41 462.86 218.85 459.87 209.35 456.66 C 206.26 455.60 203.13 454.67 199.94 453.96 C 204.30 457.13 209.14 459.53 213.80 462.23 C 222.70 467.32 231.66 472.32 240.51 477.51 C 242.28 478.49 244.05 479.58 246.05 480.05 C 248.86 479.93 251.53 478.96 254.22 478.23 C 264.90 475.19 275.57 472.14 286.30 469.29 C 292.77 467.87 299.43 467.92 305.96 467.00 C 310.55 466.46 314.00 463.09 317.77 460.74 C 325.18 455.92 332.36 450.73 339.93 446.15 C 340.27 447.88 340.60 449.62 340.95 451.36 C 355.50 439.48 369.57 427.03 384.06 415.07 C 385.56 413.60 387.79 412.29 387.86 409.95 C 388.67 401.46 386.71 393.08 385.06 384.82 C 384.36 382.62 386.03 380.81 387.22 379.18 C 396.08 368.34 403.44 356.34 409.95 343.97 C 413.06 338.23 415.09 332.03 417.57 326.02 C 418.90 330.52 420.29 335.01 421.40 339.57 C 422.58 344.36 422.60 349.32 423.26 354.19 C 427.38 344.94 426.16 334.63 425.81 324.83 C 432.59 329.36 438.92 335.14 442.22 342.75 C 448.19 355.49 451.43 370.42 447.54 384.23 C 446.22 375.10 444.29 365.82 439.36 357.87 C 438.64 363.27 437.98 368.69 436.95 374.04 C 436.34 376.96 436.45 379.97 437.03 382.88 C 438.62 391.21 438.49 399.87 436.63 408.13 C 434.93 403.00 435.32 397.39 433.05 392.40 C 430.91 398.11 430.38 404.29 427.94 409.89 C 425.59 415.76 421.74 420.88 417.39 425.41 C 406.14 437.19 393.99 448.09 381.29 458.27 C 371.37 466.30 360.39 472.85 349.55 479.52 C 344.97 482.36 340.08 484.71 335.78 488.00 C 341.40 487.68 346.92 486.54 352.43 485.42 C 361.34 483.56 370.24 481.34 378.57 477.60 C 383.26 475.54 387.60 472.78 392.33 470.81 C 389.21 476.62 384.65 481.44 380.56 486.54 C 356.57 515.03 328.14 539.71 296.81 559.81 C 283.18 568.59 267.89 574.34 253.98 582.58 C 261.70 582.52 269.41 581.78 277.14 581.95 C 275.93 587.26 274.16 592.41 272.56 597.61 C 265.75 619.78 258.92 641.94 252.10 664.10 C 250.05 670.75 248.87 677.60 247.36 684.38 C 245.19 694.19 243.18 704.04 240.96 713.85 C 225.31 706.66 212.38 694.31 203.12 679.92 C 195.49 667.97 189.86 654.63 187.45 640.63 C 186.74 636.72 186.57 632.75 186.77 628.79 C 193.96 632.94 199.97 638.77 207.00 643.15 C 207.76 619.50 207.64 595.81 208.36 572.15 C 211.62 571.59 214.89 571.09 218.15 570.54 C 215.76 567.68 212.87 565.33 210.09 562.89 C 188.37 542.89 172.34 517.46 160.39 490.64 C 157.97 485.24 155.57 479.80 153.86 474.13 C 159.24 477.55 164.53 481.25 170.60 483.38 C 178.50 486.30 186.68 488.58 195.01 489.88 C 188.40 484.15 181.12 479.23 174.54 473.46 C 167.45 467.23 159.73 461.66 153.51 454.52 C 140.19 439.63 133.96 419.58 133.50 399.85 C 129.75 403.83 127.97 409.10 124.92 413.56 C 124.12 408.73 124.16 403.81 124.30 398.93 C 124.52 385.60 128.16 372.69 130.60 359.67 C 126.36 362.43 123.57 366.70 121.03 370.96 C 121.56 361.76 123.27 352.65 125.77 343.79 C 127.34 338.42 128.82 332.90 131.98 328.20 C 134.23 333.24 135.50 338.62 137.17 343.86 C 139.55 351.35 142.06 358.79 144.90 366.12 C 148.13 374.66 153.25 382.69 160.44 388.43 C 160.17 374.90 160.12 361.09 163.97 347.99 C 167.96 335.23 176.27 324.53 183.89 313.77 C 176.30 317.35 169.58 322.45 162.07 326.18 C 159.04 319.87 156.97 313.17 154.21 306.74 C 152.95 303.48 151.09 299.98 152.35 296.42 C 154.26 289.38 156.26 282.31 156.81 275.00 C 157.26 270.26 156.70 265.52 156.15 260.82 C 159.97 263.57 164.03 266.16 167.17 269.72 C 168.32 273.87 167.68 278.41 169.53 282.40 C 171.47 286.91 175.71 289.78 179.80 292.18 C 182.74 293.82 185.74 295.53 189.09 296.16 C 192.71 296.64 196.38 296.35 200.03 296.38 C 198.70 298.68 197.29 300.93 195.90 303.19 C 203.49 300.09 211.35 296.47 219.77 297.27 C 222.06 297.46 225.46 298.02 225.20 301.07 C 225.32 309.00 220.74 315.89 218.84 323.39 C 222.25 319.78 224.60 315.38 227.23 311.21 C 231.99 303.65 236.79 296.12 241.60 288.59 C 243.52 285.82 244.02 282.44 244.30 279.17 C 245.54 265.73 247.79 252.42 250.15 239.14 C 252.20 227.34 255.72 215.76 260.92 204.96 C 262.27 202.09 263.92 199.37 265.74 196.78 C 264.92 200.91 263.79 204.99 263.19 209.16 C 261.85 218.03 262.17 227.04 260.91 235.91 C 258.87 250.86 258.14 265.95 258.22 281.02 C 258.38 287.14 256.33 292.96 254.87 298.82 C 252.93 307.25 250.15 315.50 248.91 324.07 C 252.04 319.11 254.35 313.66 257.91 308.96 C 262.08 303.14 267.50 297.62 274.59 295.66 C 281.57 294.04 288.59 296.65 295.14 298.83 C 303.46 301.59 311.07 306.03 319.20 309.23 C 316.95 306.07 313.92 303.56 311.66 300.42 C 311.05 298.74 311.16 296.91 310.99 295.16 C 317.34 295.63 323.80 296.50 330.12 295.21 C 334.81 294.26 339.59 292.49 342.99 288.98 C 346.49 285.23 348.03 280.18 349.26 275.32 C 349.91 273.14 350.19 270.56 352.15 269.10 C 356.39 265.56 361.39 263.00 365.25 259.01 C 349.47 260.80 333.87 263.95 318.14 266.11 C 315.04 266.72 311.39 266.62 309.08 269.10 C 305.22 273.02 301.94 277.48 297.92 281.25 C 293.27 277.91 289.24 273.83 284.82 270.20 C 282.61 268.28 279.91 266.26 279.81 263.05 C 277.59 245.43 280.99 227.40 288.24 211.27 C 290.87 205.63 294.23 200.14 299.08 196.14 Z" />
<path fill="#ffffff" opacity="1.00" d=" M 213.17 202.15 C 220.94 197.55 230.10 195.44 239.10 195.89 C 239.35 199.48 239.33 203.10 238.67 206.64 C 236.18 221.26 231.01 235.29 228.93 249.99 C 228.23 254.12 228.03 258.32 227.35 262.45 C 226.95 265.18 225.00 267.28 223.37 269.37 C 220.33 272.94 217.75 276.91 214.29 280.10 C 210.51 276.04 207.71 271.10 203.54 267.42 C 200.45 266.04 196.99 265.90 193.71 265.26 C 181.13 263.06 168.54 260.92 155.98 258.67 C 158.81 249.87 166.24 243.31 174.26 239.18 C 178.26 237.26 182.43 235.28 186.92 234.94 C 189.44 235.82 191.61 237.43 193.88 238.79 C 193.68 234.19 193.03 229.61 193.01 225.01 C 192.89 222.60 194.37 220.58 195.65 218.70 C 200.37 212.15 206.17 206.25 213.17 202.15 Z" />
<path fill="#ffffff" opacity="1.00" d=" M 184.37 273.17 C 186.72 273.34 189.07 273.70 191.38 274.19 C 191.25 276.30 190.97 278.45 191.32 280.56 C 191.79 282.44 193.83 283.66 195.70 283.01 C 198.27 281.82 197.93 278.61 198.52 276.29 C 200.97 278.06 203.32 279.97 205.51 282.05 C 203.92 285.77 201.14 289.42 196.90 290.14 C 192.07 291.23 187.18 288.15 185.21 283.79 C 183.47 280.51 183.93 276.70 184.37 273.17 Z" />
<path fill="#ffffff" opacity="1.00" d=" M 325.47 274.09 C 327.67 273.70 329.86 273.31 332.06 272.94 C 332.55 275.45 333.18 278.04 332.61 280.60 C 331.84 284.76 328.91 288.65 324.78 289.91 C 321.25 291.02 317.24 289.95 314.62 287.38 C 312.79 285.72 311.95 283.33 311.00 281.13 C 313.04 279.48 315.24 278.03 317.61 276.89 C 318.33 278.68 318.91 280.55 319.95 282.20 C 321.61 284.18 325.03 282.86 325.52 280.49 C 325.87 278.37 325.58 276.22 325.47 274.09 Z" />
<path fill="#ffffff" opacity="1.00" d=" M 220.60 383.61 C 222.27 381.39 225.34 381.29 227.80 380.55 C 226.28 382.43 224.46 384.14 223.43 386.37 C 222.44 388.85 221.98 391.50 221.30 394.09 C 220.23 390.76 218.98 386.96 220.60 383.61 Z" />
</g>
<g id="#231f20ff">
<path fill="#231f20" opacity="1.00" d=" M 392.44 14.45 C 397.90 8.84 406.68 7.43 413.89 10.16 C 423.63 13.81 431.16 21.48 437.66 29.35 C 450.53 45.49 459.33 64.48 466.24 83.82 C 479.54 121.34 484.98 161.30 485.04 201.00 C 485.15 206.37 484.28 211.92 485.97 217.14 C 497.85 250.93 509.47 284.83 521.36 318.62 C 522.65 322.31 522.14 326.26 521.83 330.06 C 520.91 340.12 520.26 350.19 519.36 360.25 C 519.03 363.85 518.92 367.54 519.92 371.06 C 527.68 399.08 535.15 427.19 542.91 455.22 C 543.40 457.07 543.65 459.06 542.95 460.90 C 540.85 467.30 537.91 473.40 535.89 479.82 C 535.06 481.88 536.42 483.85 537.27 485.65 C 543.35 496.68 548.98 507.95 555.01 519.00 C 556.19 521.28 557.56 523.52 558.16 526.05 C 557.93 527.94 557.18 529.71 556.51 531.48 C 552.94 539.96 549.77 548.60 545.88 556.94 C 534.19 582.21 519.84 606.46 501.45 627.47 C 494.74 635.07 487.84 642.51 480.53 649.54 C 459.94 669.50 437.93 688.00 414.83 704.98 C 411.79 700.41 410.02 695.16 407.03 690.57 C 393.24 700.31 379.94 710.85 365.18 719.15 C 346.64 730.00 327.96 740.62 309.29 751.27 C 305.16 753.65 301.06 756.12 296.80 758.27 C 294.21 752.40 293.13 746.03 290.85 740.05 C 286.33 741.26 281.95 742.91 277.56 744.53 C 266.95 748.28 256.32 751.97 245.73 755.78 C 242.92 756.72 240.17 758.13 237.17 758.35 C 234.58 757.75 232.29 756.29 229.93 755.11 C 215.73 747.64 202.04 739.23 188.83 730.14 C 169.79 716.88 151.73 702.09 135.89 685.09 C 112.83 660.53 91.08 634.60 72.49 606.46 C 70.81 603.82 68.49 600.94 69.54 597.60 C 76.78 563.44 83.85 529.24 91.11 495.09 C 91.96 490.76 93.54 486.26 92.14 481.88 C 90.25 475.15 88.25 468.44 86.14 461.78 C 84.94 457.95 84.04 453.90 84.76 449.88 C 86.79 436.12 88.71 422.34 90.62 408.57 C 91.97 399.00 92.58 389.35 93.64 379.75 C 94.12 374.82 95.01 369.84 94.14 364.90 C 92.16 353.19 90.22 341.46 88.22 329.75 C 87.35 325.02 88.78 320.34 89.73 315.75 C 95.91 286.53 101.88 257.26 108.09 228.05 C 108.93 223.65 107.62 219.26 107.10 214.91 C 104.82 198.04 103.57 181.02 103.62 164.00 C 103.69 138.95 106.41 113.58 114.88 89.87 C 120.36 74.27 127.86 59.21 138.29 46.31 C 145.01 37.99 153.05 30.55 162.57 25.55 C 166.00 23.68 170.24 23.55 173.79 25.19 C 179.77 27.88 183.73 33.39 187.34 38.63 C 202.12 60.84 216.93 83.03 231.74 105.23 C 234.86 109.81 237.68 114.60 241.11 118.96 C 267.06 117.62 292.99 115.68 318.94 114.25 C 321.48 114.10 324.03 113.85 326.57 113.56 C 345.82 84.50 365.02 55.39 384.31 26.35 C 387.03 22.40 389.10 17.95 392.44 14.45 M 406.57 44.55 C 403.33 48.13 401.03 52.44 398.55 56.56 C 385.46 79.27 373.99 102.85 362.24 126.27 C 361.12 128.49 360.10 130.76 359.09 133.03 C 363.38 137.09 368.32 140.38 372.87 144.14 C 378.23 148.30 383.37 152.74 388.82 156.79 C 393.05 136.78 397.02 116.66 403.02 97.08 C 404.18 93.70 405.09 90.07 407.38 87.25 C 407.75 87.15 408.50 86.96 408.88 86.86 C 410.98 89.39 411.58 92.73 412.17 95.87 C 413.80 105.46 414.01 115.21 414.42 124.91 C 414.91 131.94 419.10 138.11 419.63 145.13 C 419.75 156.70 418.48 168.27 418.84 179.85 C 422.13 182.36 425.56 184.69 429.01 186.99 C 435.57 191.41 441.77 196.38 448.57 200.45 C 454.20 203.85 459.23 208.16 465.06 211.23 C 465.51 205.17 465.38 199.09 465.27 193.02 C 464.40 155.63 458.52 118.07 444.95 83.10 C 440.64 71.86 435.92 60.36 427.61 51.40 C 424.36 47.91 420.80 44.37 416.18 42.78 C 412.99 41.69 408.92 41.82 406.57 44.55 M 158.36 57.32 C 152.78 59.75 148.83 64.68 145.81 69.81 C 136.80 85.04 130.62 101.92 127.25 119.28 C 122.64 143.92 122.51 169.21 124.64 194.12 C 125.31 201.14 125.85 208.19 127.14 215.13 C 128.83 213.85 130.48 212.50 131.94 210.96 C 137.78 204.79 143.60 198.61 149.63 192.63 C 150.80 191.41 152.02 190.20 152.87 188.73 C 153.52 186.57 153.21 184.26 153.18 182.04 C 152.54 171.67 152.32 161.28 151.70 150.91 C 151.57 147.76 151.16 144.46 152.39 141.46 C 154.46 135.65 158.66 130.45 158.79 124.06 C 159.06 114.26 159.20 104.41 160.64 94.69 C 161.23 91.50 161.60 87.70 164.72 85.91 C 169.33 92.50 170.82 100.56 172.87 108.18 C 177.12 124.72 179.71 141.66 184.33 158.11 C 188.99 154.92 192.70 150.62 196.90 146.88 C 201.33 142.58 206.16 138.68 210.21 134.00 C 206.10 124.86 201.36 116.03 196.93 107.05 C 189.69 93.10 182.59 79.06 174.34 65.67 C 172.53 62.87 170.84 59.86 168.21 57.74 C 165.35 55.71 161.44 55.94 158.36 57.32 M 355.53 98.58 C 350.63 106.03 345.09 113.08 340.74 120.88 C 344.22 123.53 347.93 125.85 351.84 127.83 C 354.72 119.92 357.16 111.85 359.90 103.89 C 361.99 97.21 364.74 90.71 366.11 83.82 C 361.96 88.27 359.02 93.64 355.53 98.58 M 323.46 126.44 C 298.62 128.04 273.80 130.08 248.98 132.01 C 244.20 132.50 238.93 131.99 234.75 134.79 C 230.90 137.26 227.28 140.09 223.85 143.12 C 230.04 141.82 235.91 139.32 242.13 138.16 C 251.55 136.34 261.17 135.92 270.74 135.54 C 282.12 134.98 293.52 135.66 304.89 136.33 C 313.57 137.15 322.58 137.62 330.59 141.45 C 336.05 144.12 341.55 147.24 345.31 152.16 C 339.40 150.76 333.87 148.03 327.85 147.06 C 320.20 145.52 312.35 147.03 305.02 149.34 C 307.96 150.98 311.00 152.42 314.04 153.88 C 320.13 156.80 325.65 160.80 330.68 165.29 C 335.10 169.28 339.59 173.28 343.14 178.09 C 339.32 176.57 335.66 174.67 331.79 173.26 C 324.40 170.60 316.02 170.05 308.63 173.02 C 316.61 178.07 325.86 181.53 332.24 188.79 C 337.29 194.38 339.51 201.71 343.06 208.22 C 346.09 207.20 349.09 206.03 352.21 205.29 C 356.39 204.30 360.71 204.68 364.95 205.03 C 360.47 210.11 355.21 214.46 351.12 219.88 C 357.35 222.07 363.73 224.04 369.38 227.56 C 377.67 232.66 385.49 238.77 391.67 246.34 C 400.09 256.97 404.97 269.95 407.96 283.06 C 409.04 287.46 409.10 292.10 410.67 296.38 C 412.12 298.56 414.39 300.01 416.39 301.64 C 426.95 309.74 437.09 318.39 447.99 326.03 C 448.70 315.71 448.46 305.30 446.95 295.06 C 445.96 287.99 444.10 281.08 443.12 274.02 C 450.88 285.17 455.94 298.13 458.54 311.43 C 461.91 330.10 461.75 349.17 461.74 368.08 C 460.87 394.01 451.23 418.93 437.92 440.94 C 421.33 468.46 400.64 493.29 378.10 516.10 C 354.43 539.12 328.89 560.43 300.66 577.66 C 298.61 578.73 297.46 580.77 296.93 582.96 C 294.03 593.33 290.92 603.64 287.97 614.00 C 286.27 620.01 284.18 625.93 283.00 632.08 C 285.83 630.24 288.50 628.19 291.12 626.08 C 298.95 619.84 307.77 615.00 316.84 610.84 C 327.60 605.91 338.64 601.62 349.83 597.76 C 355.83 595.67 361.79 593.41 368.02 592.05 C 363.79 596.50 359.01 600.36 354.52 604.53 C 338.61 619.26 322.50 633.95 308.93 650.93 C 295.76 667.21 282.61 683.56 271.08 701.06 C 267.46 706.69 263.66 712.36 261.85 718.88 C 268.39 716.29 274.61 712.95 280.95 709.91 C 289.98 705.56 298.43 700.14 307.05 695.06 C 320.59 686.93 334.16 678.86 347.69 670.72 C 350.01 669.34 352.41 668.11 354.84 666.94 C 345.76 678.10 336.25 688.91 326.59 699.56 C 322.26 704.58 316.27 708.46 314.02 714.98 C 319.39 712.98 324.32 710.03 329.34 707.31 C 343.20 699.73 356.73 691.57 370.06 683.10 C 383.77 674.09 397.21 664.44 408.75 652.72 C 411.51 650.06 415.03 648.41 417.89 645.88 C 425.24 639.29 432.39 632.45 440.01 626.17 C 435.93 634.20 431.05 641.80 426.62 649.64 C 423.88 654.47 420.61 659.04 418.70 664.31 C 421.34 662.84 423.88 661.19 426.20 659.24 C 447.56 641.75 468.33 623.35 486.55 602.53 C 498.80 588.29 510.15 572.94 517.61 555.58 C 520.93 548.11 522.78 540.09 524.16 532.06 C 524.73 529.07 523.75 526.11 522.78 523.32 C 519.12 512.96 515.78 502.49 512.50 492.00 C 509.54 495.37 507.43 499.35 505.12 503.16 C 496.40 516.83 487.39 530.43 476.32 542.35 C 469.65 549.73 461.84 555.96 453.87 561.87 C 441.51 570.91 428.31 578.75 414.67 585.67 C 412.20 586.90 409.66 587.97 407.10 588.98 C 409.79 585.73 412.77 582.73 415.74 579.75 C 428.18 566.78 440.15 553.33 451.02 539.01 C 456.14 532.33 460.24 524.94 464.98 517.99 C 480.60 494.92 493.08 469.78 502.60 443.61 C 504.41 438.41 506.00 433.13 508.08 428.03 C 509.29 425.08 510.38 421.83 509.30 418.66 C 506.70 409.37 503.71 400.18 501.21 390.86 C 500.46 388.03 499.42 385.29 498.21 382.64 C 496.17 387.24 494.65 392.04 492.67 396.66 C 484.27 416.01 473.29 434.11 461.57 451.59 C 457.76 456.85 454.56 462.60 449.93 467.21 C 452.01 460.55 455.36 454.41 457.91 447.94 C 467.34 425.16 475.53 401.74 480.51 377.56 C 483.77 361.57 485.13 345.26 485.62 328.97 C 486.21 296.46 479.33 264.40 470.87 233.19 C 470.00 230.09 469.00 226.75 466.30 224.72 C 448.87 211.32 430.62 199.04 412.71 186.29 C 389.57 169.42 366.10 152.97 343.13 135.87 C 337.25 131.67 331.21 125.93 323.46 126.44 M 265.94 158.96 C 264.29 166.25 265.17 173.91 267.03 181.08 C 271.18 175.67 274.81 169.82 277.59 163.59 C 280.62 156.83 280.22 149.16 278.82 142.05 C 273.00 146.21 267.96 151.99 265.94 158.96 M 219.36 159.38 C 213.41 161.28 207.71 163.98 202.57 167.53 C 193.93 173.42 185.75 179.96 178.01 186.98 C 172.23 192.25 165.70 196.62 159.84 201.80 C 148.47 211.41 138.24 222.24 127.73 232.75 C 124.01 236.32 123.64 241.71 122.49 246.44 C 117.68 267.91 112.72 289.35 107.83 310.81 C 107.00 314.63 105.84 318.38 105.31 322.26 C 104.77 326.50 106.37 330.58 107.37 334.63 C 109.20 341.06 110.51 347.63 112.50 354.02 C 115.17 345.50 114.71 336.39 116.79 327.74 C 117.43 325.34 118.72 323.19 120.05 321.12 C 124.70 314.04 129.06 306.77 133.76 299.72 C 135.51 297.17 136.79 294.23 136.78 291.08 C 137.14 276.28 139.44 261.23 145.78 247.73 C 148.57 241.66 152.65 236.04 158.25 232.28 C 162.90 228.87 168.50 227.25 173.94 225.58 C 172.99 220.71 170.92 216.15 169.86 211.31 C 174.81 211.78 179.72 212.64 184.69 212.93 C 188.93 208.44 192.55 203.31 197.56 199.59 C 207.07 192.36 218.95 189.47 229.13 183.47 C 222.20 182.06 215.11 181.87 208.11 180.98 C 213.14 174.76 218.78 168.94 225.41 164.42 C 229.94 161.11 235.01 158.59 239.25 154.89 C 232.43 155.33 225.85 157.33 219.36 159.38 M 299.08 196.14 C 294.23 200.14 290.87 205.63 288.24 211.27 C 280.99 227.40 277.59 245.43 279.81 263.05 C 279.91 266.26 282.61 268.28 284.82 270.20 C 289.24 273.83 293.27 277.91 297.92 281.25 C 301.94 277.48 305.22 273.02 309.08 269.10 C 311.39 266.62 315.04 266.72 318.14 266.11 C 333.87 263.95 349.47 260.80 365.25 259.01 C 361.39 263.00 356.39 265.56 352.15 269.10 C 350.19 270.56 349.91 273.14 349.26 275.32 C 348.03 280.18 346.49 285.23 342.99 288.98 C 339.59 292.49 334.81 294.26 330.12 295.21 C 323.80 296.50 317.34 295.63 310.99 295.16 C 311.16 296.91 311.05 298.74 311.66 300.42 C 313.92 303.56 316.95 306.07 319.20 309.23 C 311.07 306.03 303.46 301.59 295.14 298.83 C 288.59 296.65 281.57 294.04 274.59 295.66 C 267.50 297.62 262.08 303.14 257.91 308.96 C 254.35 313.66 252.04 319.11 248.91 324.07 C 250.15 315.50 252.93 307.25 254.87 298.82 C 256.33 292.96 258.38 287.14 258.22 281.02 C 258.14 265.95 258.87 250.86 260.91 235.91 C 262.17 227.04 261.85 218.03 263.19 209.16 C 263.79 204.99 264.92 200.91 265.74 196.78 C 263.92 199.37 262.27 202.09 260.92 204.96 C 255.72 215.76 252.20 227.34 250.15 239.14 C 247.79 252.42 245.54 265.73 244.30 279.17 C 244.02 282.44 243.52 285.82 241.60 288.59 C 236.79 296.12 231.99 303.65 227.23 311.21 C 224.60 315.38 222.25 319.78 218.84 323.39 C 220.74 315.89 225.32 309.00 225.20 301.07 C 225.46 298.02 222.06 297.46 219.77 297.27 C 211.35 296.47 203.49 300.09 195.90 303.19 C 197.29 300.93 198.70 298.68 200.03 296.38 C 196.38 296.35 192.71 296.64 189.09 296.16 C 185.74 295.53 182.74 293.82 179.80 292.18 C 175.71 289.78 171.47 286.91 169.53 282.40 C 167.68 278.41 168.32 273.87 167.17 269.72 C 164.03 266.16 159.97 263.57 156.15 260.82 C 156.70 265.52 157.26 270.26 156.81 275.00 C 156.26 282.31 154.26 289.38 152.35 296.42 C 151.09 299.98 152.95 303.48 154.21 306.74 C 156.97 313.17 159.04 319.87 162.07 326.18 C 169.58 322.45 176.30 317.35 183.89 313.77 C 176.27 324.53 167.96 335.23 163.97 347.99 C 160.12 361.09 160.17 374.90 160.44 388.43 C 153.25 382.69 148.13 374.66 144.90 366.12 C 142.06 358.79 139.55 351.35 137.17 343.86 C 135.50 338.62 134.23 333.24 131.98 328.20 C 128.82 332.90 127.34 338.42 125.77 343.79 C 123.27 352.65 121.56 361.76 121.03 370.96 C 123.57 366.70 126.36 362.43 130.60 359.67 C 128.16 372.69 124.52 385.60 124.30 398.93 C 124.16 403.81 124.12 408.73 124.92 413.56 C 127.97 409.10 129.75 403.83 133.50 399.85 C 133.96 419.58 140.19 439.63 153.51 454.52 C 159.73 461.66 167.45 467.23 174.54 473.46 C 181.12 479.23 188.40 484.15 195.01 489.88 C 186.68 488.58 178.50 486.30 170.60 483.38 C 164.53 481.25 159.24 477.55 153.86 474.13 C 155.57 479.80 157.97 485.24 160.39 490.64 C 172.34 517.46 188.37 542.89 210.09 562.89 C 212.87 565.33 215.76 567.68 218.15 570.54 C 214.89 571.09 211.62 571.59 208.36 572.15 C 207.64 595.81 207.76 619.50 207.00 643.15 C 199.97 638.77 193.96 632.94 186.77 628.79 C 186.57 632.75 186.74 636.72 187.45 640.63 C 189.86 654.63 195.49 667.97 203.12 679.92 C 212.38 694.31 225.31 706.66 240.96 713.85 C 243.18 704.04 245.19 694.19 247.36 684.38 C 248.87 677.60 250.05 670.75 252.10 664.10 C 258.92 641.94 265.75 619.78 272.56 597.61 C 274.16 592.41 275.93 587.26 277.14 581.95 C 269.41 581.78 261.70 582.52 253.98 582.58 C 267.89 574.34 283.18 568.59 296.81 559.81 C 328.14 539.71 356.57 515.03 380.56 486.54 C 384.65 481.44 389.21 476.62 392.33 470.81 C 387.60 472.78 383.26 475.54 378.57 477.60 C 370.24 481.34 361.34 483.56 352.43 485.42 C 346.92 486.54 341.40 487.68 335.78 488.00 C 340.08 484.71 344.97 482.36 349.55 479.52 C 360.39 472.85 371.37 466.30 381.29 458.27 C 393.99 448.09 406.14 437.19 417.39 425.41 C 421.74 420.88 425.59 415.76 427.94 409.89 C 430.38 404.29 430.91 398.11 433.05 392.40 C 435.32 397.39 434.93 403.00 436.63 408.13 C 438.49 399.87 438.62 391.21 437.03 382.88 C 436.45 379.97 436.34 376.96 436.95 374.04 C 437.98 368.69 438.64 363.27 439.36 357.87 C 444.29 365.82 446.22 375.10 447.54 384.23 C 451.43 370.42 448.19 355.49 442.22 342.75 C 438.92 335.14 432.59 329.36 425.81 324.83 C 426.16 334.63 427.38 344.94 423.26 354.19 C 422.60 349.32 422.58 344.36 421.40 339.57 C 420.29 335.01 418.90 330.52 417.57 326.02 C 415.09 332.03 413.06 338.23 409.95 343.97 C 403.44 356.34 396.08 368.34 387.22 379.18 C 386.03 380.81 384.36 382.62 385.06 384.82 C 386.71 393.08 388.67 401.46 387.86 409.95 C 387.79 412.29 385.56 413.60 384.06 415.07 C 369.57 427.03 355.50 439.48 340.95 451.36 C 340.60 449.62 340.27 447.88 339.93 446.15 C 332.36 450.73 325.18 455.92 317.77 460.74 C 314.00 463.09 310.55 466.46 305.96 467.00 C 299.43 467.92 292.77 467.87 286.30 469.29 C 275.57 472.14 264.90 475.19 254.22 478.23 C 251.53 478.96 248.86 479.93 246.05 480.05 C 244.05 479.58 242.28 478.49 240.51 477.51 C 231.66 472.32 222.70 467.32 213.80 462.23 C 209.14 459.53 204.30 457.13 199.94 453.96 C 203.13 454.67 206.26 455.60 209.35 456.66 C 218.85 459.87 228.41 462.86 237.88 466.14 C 239.83 466.73 241.79 467.53 243.86 467.47 C 246.24 467.25 248.52 466.47 250.81 465.84 C 259.52 463.29 268.34 461.14 277.05 458.59 C 272.39 456.36 267.19 452.96 261.85 454.82 C 255.00 456.92 248.31 459.55 241.39 461.42 C 239.10 462.10 236.82 461.10 234.69 460.35 C 222.54 455.58 210.28 451.12 198.06 446.52 C 204.27 441.61 211.76 438.70 218.18 434.13 C 220.09 432.82 219.65 430.15 219.72 428.15 C 219.90 426.25 218.24 425.08 217.04 423.91 C 211.28 419.03 205.68 413.96 200.11 408.87 C 195.30 404.45 191.06 399.03 189.43 392.60 C 188.53 389.33 189.22 385.83 190.86 382.92 C 195.66 374.12 202.47 366.42 210.69 360.68 C 212.48 359.32 214.72 358.80 216.94 358.82 C 222.65 358.78 228.36 358.77 234.07 358.83 C 237.91 358.75 241.31 360.70 244.63 362.39 C 247.49 363.89 250.46 365.17 253.28 366.76 C 256.28 368.34 258.07 371.33 260.08 373.94 C 261.54 376.01 263.25 377.95 264.33 380.27 C 264.46 382.00 263.87 383.68 263.42 385.34 C 261.15 392.58 257.99 399.55 254.16 406.10 C 250.45 412.50 245.30 417.89 240.18 423.16 C 239.05 424.43 237.71 425.64 237.11 427.28 C 236.90 429.27 237.39 431.25 237.66 433.21 C 252.83 439.11 268.11 444.73 283.24 450.74 C 285.68 451.72 288.30 452.35 290.95 452.14 C 295.60 451.83 300.26 451.61 304.89 451.01 C 306.96 450.81 308.61 449.43 310.19 448.21 C 320.80 439.46 331.60 430.95 342.27 422.28 C 344.99 419.98 348.09 418.08 350.39 415.33 C 351.69 412.39 351.53 409.08 351.66 405.94 C 351.69 398.34 351.71 390.42 348.70 383.30 C 346.22 377.40 341.24 373.21 336.85 368.78 C 343.93 369.09 350.90 370.52 357.97 371.04 C 359.19 365.33 360.09 359.42 359.43 353.58 C 358.30 346.58 354.19 340.55 350.03 334.99 C 344.63 327.69 337.89 321.56 331.85 314.82 C 337.88 317.27 343.37 320.81 349.07 323.92 C 350.55 324.68 352.05 325.55 353.74 325.75 C 355.92 324.33 357.74 322.44 359.64 320.67 C 366.30 314.32 373.23 308.25 379.90 301.92 C 381.92 300.23 381.84 297.43 382.07 295.04 C 382.49 286.24 384.02 276.95 380.36 268.59 C 378.26 265.99 375.34 264.23 372.92 261.97 C 378.00 262.70 382.75 264.78 386.93 267.72 C 387.77 265.85 388.74 264.00 389.20 261.98 C 388.56 259.27 386.83 256.98 385.26 254.74 C 380.67 248.37 374.50 243.33 368.00 239.02 C 360.06 233.84 351.25 229.78 341.86 228.17 C 336.66 227.21 331.84 229.99 326.88 231.05 C 328.58 226.53 330.85 222.27 332.93 217.93 C 329.94 211.68 325.82 205.97 320.85 201.15 C 316.17 196.60 309.75 193.55 303.12 194.10 C 301.56 194.23 300.27 195.22 299.08 196.14 M 213.17 202.15 C 206.17 206.25 200.37 212.15 195.65 218.70 C 194.37 220.58 192.89 222.60 193.01 225.01 C 193.03 229.61 193.68 234.19 193.88 238.79 C 191.61 237.43 189.44 235.82 186.92 234.94 C 182.43 235.28 178.26 237.26 174.26 239.18 C 166.24 243.31 158.81 249.87 155.98 258.67 C 168.54 260.92 181.13 263.06 193.71 265.26 C 196.99 265.90 200.45 266.04 203.54 267.42 C 207.71 271.10 210.51 276.04 214.29 280.10 C 217.75 276.91 220.33 272.94 223.37 269.37 C 225.00 267.28 226.95 265.18 227.35 262.45 C 228.03 258.32 228.23 254.12 228.93 249.99 C 231.01 235.29 236.18 221.26 238.67 206.64 C 239.33 203.10 239.35 199.48 239.10 195.89 C 230.10 195.44 220.94 197.55 213.17 202.15 M 184.37 273.17 C 183.93 276.70 183.47 280.51 185.21 283.79 C 187.18 288.15 192.07 291.23 196.90 290.14 C 201.14 289.42 203.92 285.77 205.51 282.05 C 203.32 279.97 200.97 278.06 198.52 276.29 C 197.93 278.61 198.27 281.82 195.70 283.01 C 193.83 283.66 191.79 282.44 191.32 280.56 C 190.97 278.45 191.25 276.30 191.38 274.19 C 189.07 273.70 186.72 273.34 184.37 273.17 M 325.47 274.09 C 325.58 276.22 325.87 278.37 325.52 280.49 C 325.03 282.86 321.61 284.18 319.95 282.20 C 318.91 280.55 318.33 278.68 317.61 276.89 C 315.24 278.03 313.04 279.48 311.00 281.13 C 311.95 283.33 312.79 285.72 314.62 287.38 C 317.24 289.95 321.25 291.02 324.78 289.91 C 328.91 288.65 331.84 284.76 332.61 280.60 C 333.18 278.04 332.55 275.45 332.06 272.94 C 329.86 273.31 327.67 273.70 325.47 274.09 M 220.60 383.61 C 218.98 386.96 220.23 390.76 221.30 394.09 C 221.98 391.50 222.44 388.85 223.43 386.37 C 224.46 384.14 226.28 382.43 227.80 380.55 C 225.34 381.29 222.27 381.39 220.60 383.61 M 109.43 384.71 C 107.45 404.52 105.37 424.33 103.28 444.13 C 102.94 448.28 101.76 452.64 103.30 456.69 C 105.45 462.43 108.29 467.89 110.41 473.65 C 112.05 477.87 110.41 482.36 109.68 486.59 C 103.32 519.02 97.25 551.49 90.81 583.90 C 90.35 586.06 90.36 588.39 91.51 590.36 C 93.99 595.15 96.96 599.67 99.72 604.31 C 109.40 619.65 119.57 634.78 131.44 648.54 C 143.81 662.19 157.67 674.39 171.71 686.27 C 174.40 688.58 177.20 690.77 180.12 692.78 C 177.04 687.38 172.71 682.85 169.35 677.63 C 156.89 659.14 144.03 640.44 136.86 619.14 C 130.55 601.25 125.37 582.86 123.00 564.00 C 122.45 559.91 121.85 555.83 121.35 551.73 C 126.47 554.85 131.19 558.58 136.32 561.67 C 148.95 569.54 162.77 575.99 177.55 578.42 C 182.69 579.10 188.05 579.62 193.10 578.14 C 190.91 576.51 188.58 575.10 186.29 573.63 C 178.22 568.19 171.65 560.86 166.00 553.00 C 151.62 533.94 141.75 512.00 133.21 489.84 C 127.27 474.40 124.82 457.58 126.77 441.12 C 123.56 446.42 121.38 452.29 117.94 457.46 C 115.53 451.92 113.76 446.09 112.80 440.13 C 111.99 434.45 112.12 428.70 111.93 422.99 C 111.81 416.32 111.13 409.67 110.97 403.00 C 110.71 396.89 110.89 390.69 109.43 384.71 Z" />
</g>
<g id="#a10640ff">
<path fill="#a10640" opacity="1.00" d=" M 355.53 98.58 C 359.02 93.64 361.96 88.27 366.11 83.82 C 364.74 90.71 361.99 97.21 359.90 103.89 C 357.16 111.85 354.72 119.92 351.84 127.83 C 347.93 125.85 344.22 123.53 340.74 120.88 C 345.09 113.08 350.63 106.03 355.53 98.58 Z" />
<path fill="#a10640" opacity="1.00" d=" M 323.46 126.44 C 331.21 125.93 337.25 131.67 343.13 135.87 C 366.10 152.97 389.57 169.42 412.71 186.29 C 430.62 199.04 448.87 211.32 466.30 224.72 C 469.00 226.75 470.00 230.09 470.87 233.19 C 479.33 264.40 486.21 296.46 485.62 328.97 C 485.13 345.26 483.77 361.57 480.51 377.56 C 475.53 401.74 467.34 425.16 457.91 447.94 C 455.36 454.41 452.01 460.55 449.93 467.21 C 454.56 462.60 457.76 456.85 461.57 451.59 C 473.29 434.11 484.27 416.01 492.67 396.66 C 494.65 392.04 496.17 387.24 498.21 382.64 C 499.42 385.29 500.46 388.03 501.21 390.86 C 503.71 400.18 506.70 409.37 509.30 418.66 C 510.38 421.83 509.29 425.08 508.08 428.03 C 506.00 433.13 504.41 438.41 502.60 443.61 C 493.08 469.78 480.60 494.92 464.98 517.99 C 460.24 524.94 456.14 532.33 451.02 539.01 C 440.15 553.33 428.18 566.78 415.74 579.75 C 412.77 582.73 409.79 585.73 407.10 588.98 C 409.66 587.97 412.20 586.90 414.67 585.67 C 428.31 578.75 441.51 570.91 453.87 561.87 C 461.84 555.96 469.65 549.73 476.32 542.35 C 487.39 530.43 496.40 516.83 505.12 503.16 C 507.43 499.35 509.54 495.37 512.50 492.00 C 515.78 502.49 519.12 512.96 522.78 523.32 C 523.75 526.11 524.73 529.07 524.16 532.06 C 522.78 540.09 520.93 548.11 517.61 555.58 C 510.15 572.94 498.80 588.29 486.55 602.53 C 468.33 623.35 447.56 641.75 426.20 659.24 C 423.88 661.19 421.34 662.84 418.70 664.31 C 420.61 659.04 423.88 654.47 426.62 649.64 C 431.05 641.80 435.93 634.20 440.01 626.17 C 432.39 632.45 425.24 639.29 417.89 645.88 C 415.03 648.41 411.51 650.06 408.75 652.72 C 397.21 664.44 383.77 674.09 370.06 683.10 C 356.73 691.57 343.20 699.73 329.34 707.31 C 324.32 710.03 319.39 712.98 314.02 714.98 C 316.27 708.46 322.26 704.58 326.59 699.56 C 336.25 688.91 345.76 678.10 354.84 666.94 C 352.41 668.11 350.01 669.34 347.69 670.72 C 334.16 678.86 320.59 686.93 307.05 695.06 C 298.43 700.14 289.98 705.56 280.95 709.91 C 274.61 712.95 268.39 716.29 261.85 718.88 C 263.66 712.36 267.46 706.69 271.08 701.06 C 282.61 683.56 295.76 667.21 308.93 650.93 C 322.50 633.95 338.61 619.26 354.52 604.53 C 359.01 600.36 363.79 596.50 368.02 592.05 C 361.79 593.41 355.83 595.67 349.83 597.76 C 338.64 601.62 327.60 605.91 316.84 610.84 C 307.77 615.00 298.95 619.84 291.12 626.08 C 288.50 628.19 285.83 630.24 283.00 632.08 C 284.18 625.93 286.27 620.01 287.97 614.00 C 290.92 603.64 294.03 593.33 296.93 582.96 C 297.46 580.77 298.61 578.73 300.66 577.66 C 328.89 560.43 354.43 539.12 378.10 516.10 C 400.64 493.29 421.33 468.46 437.92 440.94 C 451.23 418.93 460.87 394.01 461.74 368.08 C 461.75 349.17 461.91 330.10 458.54 311.43 C 455.94 298.13 450.88 285.17 443.12 274.02 C 444.10 281.08 445.96 287.99 446.95 295.06 C 448.46 305.30 448.70 315.71 447.99 326.03 C 437.09 318.39 426.95 309.74 416.39 301.64 C 414.39 300.01 412.12 298.56 410.67 296.38 C 409.10 292.10 409.04 287.46 407.96 283.06 C 404.97 269.95 400.09 256.97 391.67 246.34 C 385.49 238.77 377.67 232.66 369.38 227.56 C 363.73 224.04 357.35 222.07 351.12 219.88 C 355.21 214.46 360.47 210.11 364.95 205.03 C 360.71 204.68 356.39 204.30 352.21 205.29 C 349.09 206.03 346.09 207.20 343.06 208.22 C 339.51 201.71 337.29 194.38 332.24 188.79 C 325.86 181.53 316.61 178.07 308.63 173.02 C 316.02 170.05 324.40 170.60 331.79 173.26 C 335.66 174.67 339.32 176.57 343.14 178.09 C 339.59 173.28 335.10 169.28 330.68 165.29 C 325.65 160.80 320.13 156.80 314.04 153.88 C 311.00 152.42 307.96 150.98 305.02 149.34 C 312.35 147.03 320.20 145.52 327.85 147.06 C 333.87 148.03 339.40 150.76 345.31 152.16 C 341.55 147.24 336.05 144.12 330.59 141.45 C 322.58 137.62 313.57 137.15 304.89 136.33 C 293.52 135.66 282.12 134.98 270.74 135.54 C 261.17 135.92 251.55 136.34 242.13 138.16 C 235.91 139.32 230.04 141.82 223.85 143.12 C 227.28 140.09 230.90 137.26 234.75 134.79 C 238.93 131.99 244.20 132.50 248.98 132.01 C 273.80 130.08 298.62 128.04 323.46 126.44 Z" />
<path fill="#a10640" opacity="1.00" d=" M 219.36 159.38 C 225.85 157.33 232.43 155.33 239.25 154.89 C 235.01 158.59 229.94 161.11 225.41 164.42 C 218.78 168.94 213.14 174.76 208.11 180.98 C 215.11 181.87 222.20 182.06 229.13 183.47 C 218.95 189.47 207.07 192.36 197.56 199.59 C 192.55 203.31 188.93 208.44 184.69 212.93 C 179.72 212.64 174.81 211.78 169.86 211.31 C 170.92 216.15 172.99 220.71 173.94 225.58 C 168.50 227.25 162.90 228.87 158.25 232.28 C 152.65 236.04 148.57 241.66 145.78 247.73 C 139.44 261.23 137.14 276.28 136.78 291.08 C 136.79 294.23 135.51 297.17 133.76 299.72 C 129.06 306.77 124.70 314.04 120.05 321.12 C 118.72 323.19 117.43 325.34 116.79 327.74 C 114.71 336.39 115.17 345.50 112.50 354.02 C 110.51 347.63 109.20 341.06 107.37 334.63 C 106.37 330.58 104.77 326.50 105.31 322.26 C 105.84 318.38 107.00 314.63 107.83 310.81 C 112.72 289.35 117.68 267.91 122.49 246.44 C 123.64 241.71 124.01 236.32 127.73 232.75 C 138.24 222.24 148.47 211.41 159.84 201.80 C 165.70 196.62 172.23 192.25 178.01 186.98 C 185.75 179.96 193.93 173.42 202.57 167.53 C 207.71 163.98 213.41 161.28 219.36 159.38 Z" />
<path fill="#a10640" opacity="1.00" d=" M 109.43 384.71 C 110.89 390.69 110.71 396.89 110.97 403.00 C 111.13 409.67 111.81 416.32 111.93 422.99 C 112.12 428.70 111.99 434.45 112.80 440.13 C 113.76 446.09 115.53 451.92 117.94 457.46 C 121.38 452.29 123.56 446.42 126.77 441.12 C 124.82 457.58 127.27 474.40 133.21 489.84 C 141.75 512.00 151.62 533.94 166.00 553.00 C 171.65 560.86 178.22 568.19 186.29 573.63 C 188.58 575.10 190.91 576.51 193.10 578.14 C 188.05 579.62 182.69 579.10 177.55 578.42 C 162.77 575.99 148.95 569.54 136.32 561.67 C 131.19 558.58 126.47 554.85 121.35 551.73 C 121.85 555.83 122.45 559.91 123.00 564.00 C 125.37 582.86 130.55 601.25 136.86 619.14 C 144.03 640.44 156.89 659.14 169.35 677.63 C 172.71 682.85 177.04 687.38 180.12 692.78 C 177.20 690.77 174.40 688.58 171.71 686.27 C 157.67 674.39 143.81 662.19 131.44 648.54 C 119.57 634.78 109.40 619.65 99.72 604.31 C 96.96 599.67 93.99 595.15 91.51 590.36 C 90.36 588.39 90.35 586.06 90.81 583.90 C 97.25 551.49 103.32 519.02 109.68 486.59 C 110.41 482.36 112.05 477.87 110.41 473.65 C 108.29 467.89 105.45 462.43 103.30 456.69 C 101.76 452.64 102.94 448.28 103.28 444.13 C 105.37 424.33 107.45 404.52 109.43 384.71 Z" />
</g>
</svg>
